<svg id="White_Logo" data-name="White Logo" xmlns="http://www.w3.org/2000/svg" viewBox="0 0 551.94 551.94"><defs><style>.cls-1{fill:#bff8ff;}.cls-2{opacity:0.59;}.cls-11,.cls-12,.cls-3,.cls-8{fill:none;stroke-miterlimit:10;stroke-width:3px;}.cls-3,.cls-8{stroke:#0b0a2f;}.cls-3{opacity:0.2;}.cls-4,.cls-6{fill:#0046a2;}.cls-4,.cls-9{opacity:0.4;}.cls-5{opacity:0.6;}.cls-7{opacity:0.8;}.cls-10,.cls-9{fill:#b066ff;}.cls-11,.cls-12{stroke:#000;}.cls-11{opacity:0.5;}.cls-13{opacity:0.55;}</style></defs><title>die</title><rect class="cls-1" width="551.94" height="551.94"/><g class="cls-2"><line class="cls-3" x1="180.46" y1="163.13" x2="275.13" y2="219.16"/><line class="cls-3" x1="180.46" y1="163.13" x2="83.24" y2="219.96"/><line class="cls-3" x1="180.45" y1="51.49" x2="180.46" y2="160.86"/></g><path class="cls-4" d="M83.58,167.25c3.49-1.19,7.85-5.83,10.65-8.2,9.56-8.09,16.28-18.69,26.9-25.7a45.31,45.31,0,0,1,21.09-7.59c5.38-.43,10.71.95,16.09.58,5-.35,8.64-2.86,12.21-6.16q4.23-3.93,8.06-8.27c1-1.18,2.11-2.59,1.93-4.15.35,3,8.22,7.11,10.48,8.2,6.52,3.11,10.19,2,19.22,3.49,10.94,1.87,9.92,4.33,22.89,7.34,10.64,2.46,12.72,1.13,21.31,3.49a67,67,0,0,1,19.54,9c-.78-.52-2.05.46-2.79.72a75.69,75.69,0,0,0-11.3,4.85c-10.86,6-15.25,18.48-21.61,28.41-2.9,4.52-7.28,8.21-11.56,11.35q-.8.59-1.59,1.14c-3.94,2.78-8.37,5.59-13.14,6.64a11.75,11.75,0,0,1-2.21.3,19.64,19.64,0,0,1-5.48,1.33c-1.35.11-9.6,1.35-11.36,1.58-8,1.05-8.84.79-13.07,2.15a54.65,54.65,0,0,1-7,1.85c-.72.14-17.11,4.05-31.23-2.49-21.16-9.81-21.35-25.83-38.64-30.17C95.26,165.05,88.36,165.61,83.58,167.25Z" transform="translate(0 0)"/><g class="cls-5"><path class="cls-6" d="M118.39,177c3.46,3.72,6.25,7.88,10.08,11.31a47.53,47.53,0,0,0,13.82,8.83,58.24,58.24,0,0,0,14.55,3.4c3.3.4,8.32,1,17.78-1.2,4.85-1.12,5.58-2.12,5.52-4.93-.13-5.75-.11,72.94-.11,72.94,0,2.75-2,3.89-4.36,2.53L84.33,218.19c-.18-12.45-.6-40.56-.74-50.52,0-2.54,0-.42,0-.42a32.08,32.08,0,0,1,5.47-1.32,34.76,34.76,0,0,1,15.11.95c4.49,1.37,8.56,4.53,11.91,7.74C116.86,175.38,117.64,176.17,118.39,177Z" transform="translate(0 0)"/></g><g class="cls-7"><path class="cls-6" d="M274.05,213.19a9.57,9.57,0,0,1-4.32,7.49l-85.24,49.15c-2.38,1.37-4.33.25-4.33-2.5,0,0,0-81.32,0-72.94a2.67,2.67,0,0,0,.57,1.87c.94,1,3.89.42,5,.3,4.18-.44,8.28-1.5,12.44-2.11,11.43-1.66,23.16-4.55,32-12.53,8-7.25,11.71-17.89,18-26.44a49.87,49.87,0,0,1,10.4-10.91A28.05,28.05,0,0,1,274,139.31a.15.15,0,0,1,.09,0c.24.13,0,1,0,1C273.92,141,274.05,213.19,274.05,213.19Z" transform="translate(0 0)"/></g><path class="cls-8" d="M189.08,52.87c-5.49-3.2-14.29-3.2-19.78,0L88.61,99.5c-5.48,3.2-9.94,10.86-9.94,17.15v93.14c0,6.29,4.46,14.06,9.94,17.15l80.69,46.63c5.49,3.2,14.41,3.2,19.78,0l80.69-46.63c5.48-3.2,9.94-10.86,9.94-17.15V116.65c0-6.29-4.46-14.06-9.94-17.15Z" transform="translate(0 0)"/><path class="cls-8" d="M386.94,286c-5.33-3.11-14-3.11-19.2,0l-78.37,45.29c-5.33,3.11-9.66,10.54-9.66,16.65V438.4c0,6.1,4.33,13.65,9.66,16.65l78.37,45.29c5.33,3.11,14,3.11,19.2,0l78.37-45.29c5.33-3.11,9.66-10.55,9.66-16.65V347.93c0-6.11-4.33-13.66-9.66-16.65Z" transform="translate(0 0)"/><path class="cls-9" d="M471.12,397.18c-1.76-.61-3.78-3.53-5.05-4.83-5-5.09-9-10.41-16.28-12.08-3.93-.91-8-1.07-12-1.84-7.75-1.52-14.89-5.38-21.17-10.16-4.82-3.66-8.7-8.31-13.18-12.35-1.89-1.7-24.08-18-25.22-16.64-2,2.38-6.6,5.74-11.47,8.08-6.33,3-9.91,1.89-18.67,3.39-10.62,1.82-9.64,4.21-22.23,7.13-10.34,2.39-12.36,1.09-20.7,3.39a65,65,0,0,0-19,8.77c.76-.5,2,.44,2.71.7a72.89,72.89,0,0,1,11,4.71c10.54,5.87,14.81,17.95,21,27.6,2.81,4.38,7.07,8,11.22,11l1.55,1.11c3.83,2.69,8.13,5.42,12.76,6.45a13,13,0,0,0,2.14.29,20,20,0,0,0,5.33,1.29c1.31.11,9.32,1.3,11,1.53,7.81,1,8.59.77,12.7,2.09a54.71,54.71,0,0,0,6.83,1.8c.71.14,16.62,3.93,30.33-2.43,20.55-9.52,20.74-25.08,37.53-29.29A33.94,33.94,0,0,1,471.12,397.18Z" transform="translate(0 0)"/><g class="cls-7"><path class="cls-10" d="M437.31,406.62c-3.36,3.62-6.07,7.66-9.8,11a46.12,46.12,0,0,1-13.42,8.58,56.64,56.64,0,0,1-14.13,3.3c-3.2.39-8.08,1-17.27-1.16-4.71-1.09-5.42-2.07-5.36-4.79.13-5.59.12,70.69.12,70.69,0,2.75,1.95,3.89,4.35,2.54l88.59-50.12c.17-12.09.58-39.39.72-49.07,0-2.46,0-.4,0-.4a29.93,29.93,0,0,0-5.32-1.28,33.68,33.68,0,0,0-14.67.92c-4.37,1.33-8.32,4.4-11.57,7.51C438.79,405.07,438,405.84,437.31,406.62Z" transform="translate(0 0)"/></g><g class="cls-5"><path class="cls-10" d="M286.13,441.65a9.55,9.55,0,0,0,4.32,7.49L373,496.73c2.38,1.38,4.33.25,4.33-2.5,0,0,0-78.83,0-70.69a2.58,2.58,0,0,1-.55,1.81c-.91,1-3.78.41-4.91.29-4.06-.43-8-1.45-12.08-2-11.1-1.62-22.49-4.43-31-12.17-7.77-7-11.37-17.38-17.51-25.69a48.58,48.58,0,0,0-10.1-10.59A27.2,27.2,0,0,0,286.22,370h-.08c-.24.13,0,.93,0,1C286.25,371.63,286.13,441.65,286.13,441.65Z" transform="translate(0 0)"/></g><line class="cls-11" x1="378.57" y1="392.93" x2="377.96" y2="501.62"/><polyline class="cls-12" points="471.43 338.27 378.58 392.08 281.91 338.66"/><g class="cls-13"><line class="cls-11" x1="180.45" y1="164" x2="179.82" y2="275.91"/><polyline class="cls-12" points="276.06 107.72 180.46 163.13 80.93 108.12"/></g><g class="cls-2"><line class="cls-3" x1="378.58" y1="392.08" x2="470.53" y2="446.51"/><line class="cls-3" x1="378.58" y1="392.08" x2="284.16" y2="447.28"/><line class="cls-3" x1="378.57" y1="283.66" x2="378.58" y2="389.88"/></g><g class="cls-7"><ellipse cx="320.79" cy="336.61" rx="15.53" ry="9.29"/><ellipse cx="378.57" cy="370.04" rx="15.53" ry="9.29"/><ellipse cx="350.06" cy="353.16" rx="15.53" ry="9.29"/><ellipse cx="378.67" cy="302.25" rx="15.53" ry="9.29"/><ellipse cx="407.08" cy="319.31" rx="15.53" ry="9.29"/><ellipse cx="435.84" cy="336.61" rx="15.53" ry="9.29"/><ellipse cx="453.2" cy="373.73" rx="15.32" ry="8.64" transform="translate(-97.06 579.35) rotate(-60)"/><ellipse cx="454.68" cy="431.3" rx="15.32" ry="8.64" transform="translate(-146.18 609.41) rotate(-60)"/><ellipse cx="426.89" cy="419.29" rx="15.32" ry="8.64" transform="translate(-149.67 579.35) rotate(-60)"/><ellipse cx="399.19" cy="406.88" rx="15.32" ry="8.64" transform="translate(-152.78 549.15) rotate(-60)"/><ellipse cx="399.19" cy="464.14" rx="15.32" ry="8.64" transform="translate(-202.36 577.78) rotate(-60)"/><ellipse cx="327.52" cy="417.95" rx="8.64" ry="15.04" transform="translate(-171.89 237.56) rotate(-32.06)"/><ellipse cx="357.84" cy="405.34" rx="8.64" ry="15.04" transform="translate(-160.57 251.73) rotate(-32.06)"/><ellipse cx="303.33" cy="433.1" rx="8.64" ry="15.04" transform="translate(-183.62 227.04) rotate(-32.06)"/></g><g class="cls-7"><ellipse cx="124.6" cy="191.55" rx="8.9" ry="15.49" transform="translate(-82.67 95.34) rotate(-32.06)"/><ellipse cx="120.6" cy="106.17" rx="15.99" ry="9.57"/><ellipse cx="239.05" cy="106.17" rx="15.99" ry="9.57"/><ellipse cx="255.6" cy="145" rx="15.77" ry="8.9" transform="translate(2.22 293.86) rotate(-60)"/><ellipse cx="228.51" cy="191.92" rx="15.77" ry="8.9" transform="translate(-51.95 293.86) rotate(-60)"/><ellipse cx="199.99" cy="238.09" rx="15.77" ry="8.9" transform="translate(-106.2 292.24) rotate(-60)"/></g></svg>