<?xml version="1.0" encoding="utf-8"?>
<!-- Generator: Adobe Illustrator 24.0.2, SVG Export Plug-In . SVG Version: 6.00 Build 0)  -->
<svg version="1.1" id="White_Logo" xmlns="http://www.w3.org/2000/svg" xmlns:xlink="http://www.w3.org/1999/xlink" x="0px" y="0px"
	 viewBox="0 0 800 800" style="enable-background:new 0 0 800 800;" xml:space="preserve">
<style type="text/css">
	.st0{fill:#FFFFFF;}
	.st1{fill:none;stroke:#000000;stroke-width:3;stroke-miterlimit:10;}
	.st2{clip-path:url(#SVGID_2_);}
	.st3{fill:#0B0A2F;}
	.st4{fill:#27275E;}
	.st5{fill:#52BBFF;}
	.st6{fill:none;stroke:#0B0A2F;stroke-width:4;stroke-miterlimit:10;}
	.st7{fill:#5BD0CA;}
	.st8{fill:#ED9A10;stroke:#0B0A2F;stroke-width:4;stroke-miterlimit:10;}
	.st9{fill:#FFFFFF;stroke:#000000;stroke-width:4;stroke-miterlimit:10;}
	.st10{fill:#5BD0CA;stroke:#000000;stroke-width:4;stroke-miterlimit:10;}
	.st11{fill:#DD3424;}
	.st12{fill:none;stroke:#000000;stroke-width:4;stroke-miterlimit:10;}
</style>
<title>hackGTLogo</title>
<g id="background">
	<rect class="st0" width="800" height="800"/>
</g>
<polygon class="st1" points="97.8,156.6 285.3,50.4 480,160.7 479.8,380.9 366.6,445.2 366.3,615.4 512.3,697.6 656.2,616.2 
	656.8,443.5 544.8,378.9 544.8,324.4 702.2,418 702.2,642.2 513.8,749.6 322.1,641.5 322.1,418.8 432.8,352.4 433.4,185.3 
	287.9,101.2 146.9,179.8 144.9,354.3 256.9,420.1 256.9,473.8 99.3,380.4 "/>
<g>
	<defs>
		<polygon id="SVGID_1_" points="97.8,156.6 285.3,50.4 480,160.7 479.8,380.9 366.6,445.2 366.3,615.4 512.3,697.6 656.2,616.2 
			656.8,443.5 544.8,378.9 544.8,324.4 702.2,418 702.2,642.2 513.8,749.6 322.1,641.5 322.1,418.8 432.8,352.4 433.4,185.3 
			287.9,101.2 146.9,179.8 144.9,354.3 256.9,420.1 256.9,473.8 99.3,380.4 		"/>
	</defs>
	<clipPath id="SVGID_2_">
		<use xlink:href="#SVGID_1_"  style="overflow:visible;"/>
	</clipPath>
	<g class="st2">
		<path class="st3" d="M800,274v170.5c-20.3,7-47.5,20.2-62.5,46.8c-17.8,31.5-1.7,51.8-19.8,79c-21.6,32.5-53.3,16.8-86.5,52
			c-26.9,28.5-10.6,43.6-40.6,78c-21.4,24.5-36,24.1-70.7,56.6c-14.1,13.2-27.1,27.6-38.7,43.1H0c28-49.4,58.4-68.3,82.3-75.9
			c48.3-15.4,88.6,9.2,115.8-17.1c18.7-18.1,5.4-35.2,24.8-56.7c28.3-31.3,66.7-6.3,102.3-34.8c35.8-28.7,17.1-70.3,49.8-86.8
			c32.3-16.4,67.7,15.6,92.7-6.2c9.4-8.2,12.8-20,16.7-33.3c9.6-32.9-3.6-43.8,5.2-55.1c18.5-23.7,91.1,5.1,113.1-18.2
			c2.7-2.8,5-5.9,6.9-9.3c6.7-14.1-1-28.2,15.4-50.5c27.8-37.7,85.8-46,91.7-46.8c17.1-2.3,27.4-0.5,44.8-7.6
			C779.5,294.3,792.1,282.8,800,274z"/>
		<path class="st4" d="M798.8,427.1v369.4H481.7c0-5.7,0.2-13.7,0.8-22.9c1.2-20.8,1.8-31.3,4.2-36.6c4.7-10.2,10.6,10.7,17,1.8
			c5.8-8,3.9-29.2,9.4-36.8c6.3-8.6,10.9,15.5,20,10.5c8.1-4.4,8.8-25.8,15.9-26.3c6.2-0.4,6.8,15.9,15.1,21.3
			c7.8,5.1,14.7-4.4,20.8-12.6c5.7-7.8,8.9-12.1,11.2-22.8c3.8-18,0.4-32.5,4.2-43.9c3-9,5.8-2,14-8.6c8.9-7.2,9.4-18.4,17-22.8
			c6.7-3.8,7.8,4,15.3,3.5c12.1-0.9,12.6-21.9,24.1-26.3c13.6-5.2,20,21.8,28.2,7c4.2-7.5,4.3-17.7,10-24.5s8.4-0.1,11.2-7.6
			c3.7-9.8,0.2-24,3.9-44.2c1.5-8.5,4.3-16.7,8.5-24.3c6.1-11.5,8.1-6.4,12.3-16.6c5.2-12.8,3.8-25.5,7.6-29.8
			c5.1-5.7,9.5,14.9,14.7,8.8c2.8-3.2,2.3-10,5.9-22.8c1.2-4.2,8.4-30.5,15.9-26.3C795.5,397.7,798.5,424.2,798.8,427.1z"/>
		<path class="st4" d="M407.7,0c-24.5,22.5-62.7,27.8-86.2,49.3c-48.1,44.1-69.9,103.1-76.4,109c-23.7,21.6-50,17-81.7,45.7
			c-27.2,24.7-25.4,59.5-47,79.2c-19,17.3-42.5-23.4-75.8,7C31.7,298.3,8.8,364,0,372V0H407.7z"/>
		<path class="st4" d="M573.1,1.8c-1,15.3-5.1,37-20.8,53.8c-18,19.3-32.4,11.7-66.6,31.1c-50.7,28.7-66,72-67.6,82.8
			c-0.7,4.6-1.1,9.3-1.2,14c0.1,11.8,3.4,16.9-0.8,31.3c-9.4,32.6-41.7,50.6-63.6,62.4c-16.2,8.7-29.3,13.4-40.3,16.2
			c-38.5,9.8-48.5,7.1-58.5,17.9c-12.5,13.4-2.9,28.1-7.3,65.2c-1.8,14.8-6,50.4-25,72.5c-26.7,31.1-67.7,14-109.2,31.1
			C77.4,494.5,33.3,529.2,0,621V371.4c18.6-70.6,49.8-102.2,74.9-118c29.5-18.6,46.6-12.8,71.8-37.3c34.8-33.8,25.2-67.3,57.2-83.9
			c25.7-13.3,43.9-43,70.6-56.9c28.5-14.9,13.1,0.6,38.8-29.8c13.8-16.4,46.7-32.2,94.4-43.8H573.1z"/>
		<path class="st3" d="M800,0v295.6c-19.9,7.6-40.1,14.2-60.7,19.7c-57.5,15.4-71,9.9-89.3,24.9c-31.5,25.7-12.2,58.3-41.7,81.9
			c-32.3,26-68-3.1-99,22.8c-29.3,24.6-10.2,61.6-38.5,81.9c-32,23.1-74.1-11.9-96.8,9.3c-25.9,24.2,14.4,82.5-10.5,106.8
			s-76.2-22.5-120.8,3.1c-38.6,22.1-28.6,73.2-65.6,85c-25.8,8.2-40.2-13.5-70.8-9.3c-34.5,4.7-59,38.2-75,68.5L0,796.5V620.2
			c5.2-17,14.4-52.5,31.1-78.1c9.7-14.8,23.9-33.3,53.5-54.4c31.7-22.6,43.4-9,83.3-32.4c28.3-16.6,59.6-35,68.4-67
			c8.6-31.3-13.1-43.5-4-65.8c15.4-37.4,80.3-11.2,128.1-55c22.9-20.9,8.6-30.3,65.6-126.5c22.4-37.7,31.9-45.9,38.5-50.8
			c27.3-19.9,47.9-14.1,72.9-33.2c12-9.2,27-25.6,36.5-57H800z"/>
	</g>
</g>
<path class="st5" d="M299.3,176.6c-4.8-2.8-12.5-2.8-17.3,0l-70.6,40.8c-4.8,2.8-8.7,9.5-8.7,15v81.5c0,5.5,3.9,12.3,8.7,15
	l70.6,40.8c4.8,2.8,12.6,2.8,17.3,0l70.6-40.8c4.8-2.8,8.7-9.5,8.7-15v-81.5c0-5.5-3.9-12.3-8.7-15L299.3,176.6z"/>
<path class="st6" d="M299.3,176.6c-4.8-2.8-12.5-2.8-17.3,0l-70.6,40.8c-4.8,2.8-8.7,9.5-8.7,15v81.5c0,5.5,3.9,12.3,8.7,15
	l70.6,40.8c4.8,2.8,12.6,2.8,17.3,0l70.6-40.8c4.8-2.8,8.7-9.5,8.7-15v-81.5c0-5.5-3.9-12.3-8.7-15L299.3,176.6z"/>
<path class="st7" d="M519.7,431.5c-4.8-2.8-12.6-2.8-17.3,0l-70.6,40.8c-4.8,2.8-8.7,9.5-8.7,15v81.5c0,5.5,3.9,12.3,8.7,15
	l70.6,40.8c4.8,2.8,12.6,2.8,17.3,0l70.6-40.8c4.8-2.8,8.7-9.5,8.7-15v-81.5c0-5.5-3.9-12.3-8.7-15L519.7,431.5z"/>
<path class="st6" d="M519.7,431.5c-4.8-2.8-12.6-2.8-17.3,0l-70.6,40.8c-4.8,2.8-8.7,9.5-8.7,15v81.5c0,5.5,3.9,12.3,8.7,15
	l70.6,40.8c4.8,2.8,12.6,2.8,17.3,0l70.6-40.8c4.8-2.8,8.7-9.5,8.7-15v-81.5c0-5.5-3.9-12.3-8.7-15L519.7,431.5z"/>
<path class="st8" d="M378.5,253.7c0,1.9-1.5,3.5-3.4,3.5c-0.2,0-0.4,0-0.6,0c-24-3.8-52.1-7.7-83.5-7.8c-27.2,0.1-54.3,2.3-81.1,6.5
	c-3.3,0.5-6.3-1.8-6.8-5c-0.1-0.3-0.1-0.7-0.1-1c0.1-2.2,0.1-4.1,0.1-5.5c0-4.1-0.3-8.2-0.3-12.3c-0.1-2.9-0.3-6.8,1.6-9.2
	c6.5-8.1,17.3-8.1,26.7-9.1c11.3-1.1,22.7-2,34-2.4c7.6-0.3,15.2-0.5,22.8-0.5c22.6-0.1,45.3,1.2,67.8,3.9c5.1,0.6,10.1,1,14.9,3.2
	c1.8,0.8,3.5,1.9,4.9,3.3c2.4,2.6,2.5,6.3,2.8,9.7c0.3,3.7,0.2,7.4,0.2,11.2C378.4,244.6,378.4,249,378.5,253.7z"/>
<circle class="st9" cx="290.8" cy="229.7" r="34.8"/>
<circle class="st10" cx="290.8" cy="229.7" r="7"/>
<path class="st11" d="M471.5,513.7h22.1c5.5,0,10,4.5,10,10v8.5c0,5.5-4.5,10-10,10h-22.1c-5.5,0-10-4.5-10-10v-8.5
	C461.5,518.2,466,513.7,471.5,513.7z"/>
<path class="st6" d="M471.5,513.7h22.1c5.5,0,10,4.5,10,10v8.5c0,5.5-4.5,10-10,10h-22.1c-5.5,0-10-4.5-10-10v-8.5
	C461.5,518.2,466,513.7,471.5,513.7z"/>
<path class="st11" d="M524.1,513.7h26.4c5.5,0,10,4.5,10,10v8.5c0,5.5-4.5,10-10,10h-26.4c-5.5,0-10-4.5-10-10v-8.5
	C514.1,518.2,518.5,513.7,524.1,513.7z"/>
<path class="st6" d="M524.1,513.7h26.4c5.5,0,10,4.5,10,10v8.5c0,5.5-4.5,10-10,10h-26.4c-5.5,0-10-4.5-10-10v-8.5
	C514.1,518.2,518.5,513.7,524.1,513.7z"/>
<path class="st11" d="M515.3,478.5c5.5,0,10,4.5,10,10v26.8c0,5.5-3.2,10-7.1,10h-14.2c-3.9,0-7.1-4.5-7.1-10v-26.8
	c0-5.5,4.5-10,10-10H515.3z"/>
<path class="st6" d="M515.3,478.5c5.5,0,10,4.5,10,10v26.8c0,5.5-3.2,10-7.1,10h-14.2c-3.9,0-7.1-4.5-7.1-10v-26.8
	c0-5.5,4.5-10,10-10H515.3z"/>
<path class="st11" d="M506.8,528h8.5c5.5,0,10,4.5,10,10v29.5c0,5.5-4.5,10-10,10h-8.5c-5.5,0-10-4.5-10-10V538
	C496.8,532.5,501.2,528,506.8,528z"/>
<path class="st6" d="M506.8,528h8.5c5.5,0,10,4.5,10,10v29.5c0,5.5-4.5,10-10,10h-8.5c-5.5,0-10-4.5-10-10V538
	C496.8,532.5,501.2,528,506.8,528z"/>
<rect x="493.1" y="515.8" class="st11" width="35.7" height="24.4"/>
<polygon class="st12" points="97.8,156.6 285.2,50.4 480,160.7 479.8,380.9 366.6,445.2 366.3,615.4 512.2,697.6 656.1,616.2 
	656.8,443.5 544.8,378.9 544.8,324.4 702.2,418 702.2,642.2 513.8,749.6 322,641.5 322,418.8 432.8,352.4 433.4,185.3 287.9,101.2 
	146.9,179.8 144.9,354.3 256.9,420.1 256.9,473.8 99.3,380.4 "/>
</svg>
