<svg id="Layer_1" data-name="Layer 1" xmlns="http://www.w3.org/2000/svg" viewBox="0 0 1442.18 905.32"><defs><style>.cls-1,.cls-15,.cls-17{fill:none;}.cls-2{fill:#10112e;}.cls-3{fill:#a562a6;stroke-width:5px;}.cls-10,.cls-11,.cls-3,.cls-5,.cls-6,.cls-7,.cls-8,.cls-9{stroke:#000;}.cls-10,.cls-11,.cls-12,.cls-16,.cls-17,.cls-3,.cls-5,.cls-6,.cls-7,.cls-8,.cls-9{stroke-miterlimit:10;}.cls-16,.cls-4,.cls-7,.cls-8{fill:#fff;}.cls-5{fill:#db3626;}.cls-10,.cls-11,.cls-5,.cls-6,.cls-7,.cls-9{stroke-width:6px;}.cls-6{fill:#66c5c3;}.cls-8{stroke-width:2.5px;}.cls-12,.cls-9{fill:#68b6e5;}.cls-10{fill:#66c5c2;}.cls-11{fill:#eb9922;}.cls-12{stroke:#231f20;}.cls-12,.cls-15,.cls-16{stroke-width:3px;}.cls-13{fill:#231f20;}.cls-14{fill:#27285e;}.cls-15,.cls-16{stroke:#fff;}.cls-16{fill-rule:evenodd;}.cls-17{stroke:#10112e;stroke-linecap:round;}</style></defs><title>websiteHeader</title><line class="cls-1" x1="1" x2="1441"/><path class="cls-2" d="M1442.18,0H0V905.32H1442.18Z"/><path class="cls-3" d="M482.21,869.81c0,4.13,7.67,15.93,7.67,15.93s-.59,16.45-7.08,16.45H4.28V401.08S23.5,394,35.87,413.45s33.59-7.07,28.29,14.14,26.52-23,38.89,12.37-10.61,40.66-10.61,40.66,34.27,5.14,32,20.48c3-8.69,15.23-32.55,49.11-18.39,7.78,3.26,16.71,8.52,26.94,16.44,1.11.87,2.24,1.75,3.38,2.68,30.05,5.86,17.67,17.67,23,24.74s26.54-31.27,51.91,7.07c13.56,23-6.49,37.75-6.49,37.75l14.15-3.54s10,1.77,0,24.77,12.39-6.48,12.39-6.48,5.9.58,0,11.2c-5.64,10.15,48.13-46.66,95.17,18.21q3.17,4.38,6.29,9.51a161.91,161.91,0,0,1,8.84,16.48c23.79,51.89-13.18,63.49-27.63,66,2.71.74,5,3.88,2.86,13.65,15.93.59,14.75,10.61,14.75,10.61v10s14.15-4.13,13.57,0,11.2-13.56,28.31-5.89,55.45,14.74,61.35,38.92-14.75,76.08-20.65,77.26S482.21,865.68,482.21,869.81Z"/><path class="cls-4" d="M649.38,317.57h-9V286H605.92v31.54h-9V249.32h9v29.35h34.41V249.32h9ZM703.94,286H674.36v24.18h34.36v7.36H665.36V249.32h42.89v7.41H674.36v21.94h29.58Zm53.67,13.73H729l-6.43,17.81h-9.28l26.06-68.25h7.88l26.11,68.25h-9.24Zm-25.88-7.41h23.21l-11.63-31.92Zm59.86,17.86h32.35v7.36H782.55V249.32h9Zm76.83-53.48H846.48v60.84h-9V256.73H815.64v-7.41h52.78ZM931,317.57h-9V286h-34.4v31.54h-9V249.32h9v29.35H922V249.32h9Zm61.73-60.84H970.8v60.84h-9V256.73H940v-7.41h52.78Zm48.71,29.3h-29.58v24.18h34.36v7.36h-43.36V249.32h42.89v7.41h-33.89v21.94h29.58Zm66.18,9.89q-1.26,10.83-8,16.73t-17.86,5.86q-12.09,0-19.41-8.67t-7.26-23.2v-6.57a39.1,39.1,0,0,1,3.37-16.73,25.35,25.35,0,0,1,9.66-11.06,26.66,26.66,0,0,1,14.44-3.9q10.88,0,17.43,6.1t7.64,16.78h-9q-1.17-8.16-5.11-11.81c-2.59-2.44-6.24-3.66-10.92-3.66q-8.62,0-13.55,6.38t-4.88,18.14v6.61q0,11.1,4.65,17.67a15,15,0,0,0,13,6.56q7.5,0,11.48-3.37t5.35-11.86Zm64.79,21.65h-9.05V286H1129v31.54h-9V249.32h9v29.35h34.41V249.32h9.05Z"/><path class="cls-4" d="M890,347.54a10.22,10.22,0,0,1-1.75,6.28,5.59,5.59,0,0,1-4.69,2.31,6.25,6.25,0,0,1-5.31-2.44v8.63h-1.86V338.91h1.74l.09,2.39a6,6,0,0,1,5.3-2.7,5.61,5.61,0,0,1,4.75,2.29,10.42,10.42,0,0,1,1.73,6.38Zm-1.87-.33a8.73,8.73,0,0,0-1.33-5.11,4.3,4.3,0,0,0-3.71-1.88,4.93,4.93,0,0,0-4.84,3.24v8.11a5,5,0,0,0,1.92,2.22,5.57,5.57,0,0,0,3,.76,4.24,4.24,0,0,0,3.67-1.88A9.46,9.46,0,0,0,888.16,347.21ZM902,340.5a7.32,7.32,0,0,0-1.27-.11,4.54,4.54,0,0,0-3,1,5.24,5.24,0,0,0-1.72,2.83v11.61h-1.86V338.91H896l0,2.69a5,5,0,0,1,4.76-3,3.24,3.24,0,0,1,1.24.2Zm9.2,15.63a7.43,7.43,0,0,1-3.9-1.06,7.32,7.32,0,0,1-2.71-3,9.34,9.34,0,0,1-1-4.26v-.68a10.05,10.05,0,0,1,.94-4.38,7.56,7.56,0,0,1,2.64-3.07,6.49,6.49,0,0,1,3.66-1.12,6,6,0,0,1,4.87,2.11,8.44,8.44,0,0,1,1.82,5.73v1.05H905.48v.36a7.14,7.14,0,0,0,1.64,4.79,5.26,5.26,0,0,0,4.16,1.91,6,6,0,0,0,2.64-.55,5.79,5.79,0,0,0,2.1-1.75l1.17.89A6.83,6.83,0,0,1,911.2,356.13Zm-.34-15.94a4.7,4.7,0,0,0-3.56,1.55,7.15,7.15,0,0,0-1.75,4.15h10.14v-.2a6.23,6.23,0,0,0-1.39-4A4.32,4.32,0,0,0,910.86,340.19Zm20.45,11.33a2.64,2.64,0,0,0-1.12-2.23,8.47,8.47,0,0,0-3.36-1.32,15.52,15.52,0,0,1-3.5-1.09,4.84,4.84,0,0,1-1.85-1.52,3.82,3.82,0,0,1-.59-2.15,4,4,0,0,1,1.67-3.3,6.76,6.76,0,0,1,4.28-1.31,6.91,6.91,0,0,1,4.53,1.4,4.45,4.45,0,0,1,1.72,3.64h-1.87a3,3,0,0,0-1.25-2.47,5.6,5.6,0,0,0-6.1-.15,2.53,2.53,0,0,0-1.1,2.12,2.31,2.31,0,0,0,.92,2,10,10,0,0,0,3.39,1.27,15.67,15.67,0,0,1,3.69,1.23,4.78,4.78,0,0,1,1.82,1.58,4,4,0,0,1,.6,2.23,4.06,4.06,0,0,1-1.74,3.43,7.34,7.34,0,0,1-4.5,1.28,7.66,7.66,0,0,1-4.79-1.42,4.44,4.44,0,0,1-1.83-3.63h1.87a3.28,3.28,0,0,0,1.38,2.56,5.67,5.67,0,0,0,3.37.91,5.32,5.32,0,0,0,3.16-.86A2.58,2.58,0,0,0,931.31,351.52ZM944,356.13a7.43,7.43,0,0,1-3.9-1.06,7.32,7.32,0,0,1-2.71-3,9.34,9.34,0,0,1-1-4.26v-.68a10.05,10.05,0,0,1,.94-4.38,7.56,7.56,0,0,1,2.64-3.07,6.49,6.49,0,0,1,3.66-1.12,6,6,0,0,1,4.87,2.11,8.44,8.44,0,0,1,1.82,5.73v1.05H938.23v.36a7.14,7.14,0,0,0,1.64,4.79,5.26,5.26,0,0,0,4.16,1.91,6,6,0,0,0,2.64-.55,5.79,5.79,0,0,0,2.1-1.75l1.17.89A6.83,6.83,0,0,1,944,356.13Zm-.34-15.94a4.7,4.7,0,0,0-3.56,1.55,7.15,7.15,0,0,0-1.75,4.15h10.14v-.2a6.23,6.23,0,0,0-1.39-4A4.32,4.32,0,0,0,943.61,340.19Zm12.11-1.28.06,2.89a6.78,6.78,0,0,1,2.38-2.38,6.11,6.11,0,0,1,3.14-.82,5.05,5.05,0,0,1,4,1.53,6.87,6.87,0,0,1,1.35,4.59v11.1h-1.86V344.71a5.18,5.18,0,0,0-1-3.38,3.75,3.75,0,0,0-3-1.11,4.72,4.72,0,0,0-3.07,1.1,6.25,6.25,0,0,0-2,2.92v11.58h-1.86V338.91Zm18.72-4.33v4.33h3.5v1.53h-3.5v11.27a3.52,3.52,0,0,0,.5,2.09,2,2,0,0,0,1.7.69,10.93,10.93,0,0,0,1.52-.16l.07,1.53a5.94,5.94,0,0,1-2,.27,3.33,3.33,0,0,1-2.79-1.11,5.26,5.26,0,0,1-.88-3.3V340.44h-3.11v-1.53h3.11v-4.33Zm13.92,21.55a7.47,7.47,0,0,1-3.91-1.06,7.37,7.37,0,0,1-2.7-3,9.21,9.21,0,0,1-1-4.26v-.68a9.91,9.91,0,0,1,.94-4.38,7.42,7.42,0,0,1,2.64-3.07A6.44,6.44,0,0,1,988,338.6a6.06,6.06,0,0,1,4.87,2.11,8.43,8.43,0,0,1,1.81,5.73v1.05H982.64v.36a7.14,7.14,0,0,0,1.64,4.79,5.26,5.26,0,0,0,4.16,1.91,6,6,0,0,0,2.64-.55,5.68,5.68,0,0,0,2.09-1.75l1.17.89A6.82,6.82,0,0,1,988.36,356.13ZM988,340.19a4.72,4.72,0,0,0-3.57,1.55,7.15,7.15,0,0,0-1.75,4.15h10.14v-.2a6.18,6.18,0,0,0-1.39-4A4.3,4.3,0,0,0,988,340.19Zm9.57,7a10.23,10.23,0,0,1,1.75-6.27,5.68,5.68,0,0,1,4.78-2.34,5.86,5.86,0,0,1,5.22,2.7v-9.48h1.86v24h-1.75l-.07-2.25a6.07,6.07,0,0,1-5.29,2.56,5.65,5.65,0,0,1-4.71-2.34,10.34,10.34,0,0,1-1.79-6.37Zm1.89.33a8.87,8.87,0,0,0,1.3,5.1,4.2,4.2,0,0,0,3.66,1.86,5,5,0,0,0,4.9-3v-7.94a5,5,0,0,0-4.87-3.3,4.23,4.23,0,0,0-3.67,1.86A9.36,9.36,0,0,0,999.48,347.54Zm38,0a10.28,10.28,0,0,1-1.75,6.28,5.61,5.61,0,0,1-4.71,2.31,6.08,6.08,0,0,1-5.34-2.63l-.08,2.32h-1.75v-24h1.86v9.54a5.88,5.88,0,0,1,5.28-2.76,5.63,5.63,0,0,1,4.74,2.29,10.32,10.32,0,0,1,1.75,6.36Zm-1.88-.33a8.74,8.74,0,0,0-1.3-5.16,4.21,4.21,0,0,0-3.65-1.83,5.14,5.14,0,0,0-3,.89,5.42,5.42,0,0,0-1.89,2.58v7.63a5,5,0,0,0,5,3.18,4.19,4.19,0,0,0,3.61-1.83A9.38,9.38,0,0,0,1035.64,347.21Zm11.19,5.92,4.94-14.22h2l-7.22,19.78-.37.88a4.54,4.54,0,0,1-4.3,3.07,5.1,5.1,0,0,1-1.44-.22v-1.54l1,.09a3.43,3.43,0,0,0,2.21-.68,5.08,5.08,0,0,0,1.46-2.33l.83-2.29-6.38-16.76h2Zm34.94,2.69h-1.94V344.91h-13v10.91h-1.92V333.07h1.92v10.22h13V333.07h1.94Zm16,0a8.66,8.66,0,0,1-.36-2.36,6.67,6.67,0,0,1-2.52,2,7.67,7.67,0,0,1-3.22.69,5.73,5.73,0,0,1-4-1.36,4.44,4.44,0,0,1-1.5-3.44,4.54,4.54,0,0,1,2-3.91A10,10,0,0,1,1094,346h3.39v-1.92a3.68,3.68,0,0,0-1.12-2.85,4.57,4.57,0,0,0-3.25-1.05,5.15,5.15,0,0,0-3.24,1,3,3,0,0,0-1.28,2.41h-1.87a4.32,4.32,0,0,1,1.87-3.49,7.2,7.2,0,0,1,4.61-1.48,6.5,6.5,0,0,1,4.45,1.42,5,5,0,0,1,1.69,3.94v8a9.78,9.78,0,0,0,.52,3.67v.19Zm-5.88-1.35a6.29,6.29,0,0,0,3.35-.9,5.37,5.37,0,0,0,2.15-2.43v-3.72h-3.34a8.4,8.4,0,0,0-4.38,1,3.15,3.15,0,0,0-.53,5.08A4,4,0,0,0,1091.92,354.47Zm18.61.08a5,5,0,0,0,3.27-1.09,3.91,3.91,0,0,0,1.43-2.86h1.8a5.23,5.23,0,0,1-1,2.82,6,6,0,0,1-2.37,2,7.08,7.08,0,0,1-3.16.72,6.55,6.55,0,0,1-5.28-2.31,9.41,9.41,0,0,1-1.94-6.22V347a10.49,10.49,0,0,1,.88-4.43,6.72,6.72,0,0,1,2.5-3,7,7,0,0,1,3.83-1,6.48,6.48,0,0,1,4.57,1.65,6,6,0,0,1,1.94,4.36h-1.8a4.58,4.58,0,0,0-1.43-3.2,4.62,4.62,0,0,0-3.28-1.22,4.69,4.69,0,0,0-3.94,1.83,8.29,8.29,0,0,0-1.39,5.12v.55a8.11,8.11,0,0,0,1.39,5.05A4.7,4.7,0,0,0,1110.53,354.55Zm14.27-7.25-2.14,2.06v6.46h-1.88v-24h1.88v15.35l1.76-1.9,6.47-6.36h2.36l-7.17,7.13,7.8,9.78h-2.24Zm28.53,5.81a6.47,6.47,0,0,1-3.14,2.22,13.56,13.56,0,0,1-4.77.8,8.92,8.92,0,0,1-4.75-1.28,8.57,8.57,0,0,1-3.22-3.63,12.25,12.25,0,0,1-1.15-5.37V343a11,11,0,0,1,2.39-7.47,8.08,8.08,0,0,1,6.42-2.75,8.52,8.52,0,0,1,5.66,1.8,7.38,7.38,0,0,1,2.54,4.92h-1.92a5.83,5.83,0,0,0-2.05-3.78,6.54,6.54,0,0,0-4.22-1.3,6.18,6.18,0,0,0-5,2.27,9.81,9.81,0,0,0-1.86,6.39v2.69a11.39,11.39,0,0,0,.87,4.59,7.17,7.17,0,0,0,2.53,3.08,6.74,6.74,0,0,0,3.8,1.09,10.61,10.61,0,0,0,4.27-.78,4.58,4.58,0,0,0,1.72-1.2v-5.88h-6.11V345h8Zm20.89-18.4h-7.8v21.11h-1.92V334.71h-7.78v-1.64h17.5Z"/><path class="cls-4" d="M132,214.33c-4.78.2-7.87-.71-10-5.68-2.22-5.33-5.8-10.08-9.09-15.6-4.31,6.74-9.23,12.21-11.47,18.62-1.71,4.89-4,5.45-8.15,6.38-7.29,1.66-15.13,1.84-22.42,6.75,3.91,3.63,7.29,7,10.88,10.06,5.55,4.8,7.45,10.44,6.71,18-.89,9.05-.21,18.26-.21,28.14,2-1,3.47-1.69,4.85-2.57,6.31-4,12.79-7.77,18.78-12.2,4.37-3.24,7.74-2.69,12.16-.06,5.68,3.39,12,5.78,18.74,9-.87-9.22-1.74-17.37-2.33-25.54-.18-2.39-.16-5.17.88-7.2,2.48-4.89,5.6-9.45,8.51-14.12,2.48-4,5-7.92,7.54-11.88l-.88-2.1C148.31,214.24,140.12,214,132,214.33Z"/><path class="cls-4" d="M133.26,291.83c-2.66.11-4.38-.39-5.54-3.16-1.24-3-3.23-5.61-5.06-8.68-2.4,3.75-5.14,6.79-6.38,10.36-1,2.72-2.25,3-4.54,3.55-4,.92-8.41,1-12.47,3.75,2.17,2,4.06,3.88,6,5.6,3.09,2.67,4.15,5.81,3.74,10-.5,5-.12,10.17-.12,15.66,1.08-.57,1.93-.94,2.7-1.43,3.5-2.23,7.11-4.32,10.44-6.79,2.43-1.8,4.31-1.49,6.77,0,3.16,1.89,6.65,3.22,10.43,5-.49-5.12-1-9.66-1.3-14.2a7.84,7.84,0,0,1,.49-4c1.38-2.72,3.12-5.26,4.73-7.86,1.38-2.21,2.8-4.4,4.2-6.61l-.49-1.16C142.36,291.78,137.8,291.65,133.26,291.83Z"/><path class="cls-5" d="M268.87,510.2a4.08,4.08,0,0,1-1.39.75,3.92,3.92,0,0,1-1.56.14c-.95-.08-1.9-.12-2.85-.11a27.49,27.49,0,0,0-27.4,23.45,30.25,30.25,0,0,0,24.11,34.32,30.85,30.85,0,0,0,5.84.5c17.2-.14,28.43-11.79,30.64-23.24a30.76,30.76,0,0,0-7.65-26A28.72,28.72,0,0,0,268.87,510.2Z"/><path class="cls-6" d="M298.69,538.1a2,2,0,0,1-1.45.4c-.47,0-.94-.06-1.4-.06-6.86,0-12.44,4.44-13.57,10.79-1.31,7.42,3.94,14.61,11.72,16a15.39,15.39,0,0,0,2.87.25c8.46,0,14-5.37,15.16-10.68a13.79,13.79,0,0,0-3.66-12.11A14.4,14.4,0,0,0,298.69,538.1Z"/><path class="cls-7" d="M428.78,94.11c-2.64.11-4.36-.4-5.51-3.16-1.23-3-3.21-5.59-5-8.65-2.39,3.73-5.11,6.77-6.35,10.33-.94,2.71-2.23,3-4.51,3.54-4,.92-8.37,1-12.4,3.74,2.16,2,4,3.87,6,5.59,3.08,2.66,4.12,5.79,3.72,10-.49,5-.12,10.14-.12,15.62,1.08-.57,1.92-.94,2.69-1.43,3.49-2.22,7.08-4.31,10.39-6.77,2.42-1.8,4.28-1.49,6.73,0,3.15,1.88,6.62,3.2,10.37,5-.48-5.12-1-9.64-1.29-14.17a7.91,7.91,0,0,1,.49-4c1.37-2.71,3.1-5.25,4.71-7.83,1.37-2.21,2.77-4.4,4.17-6.6-.16-.38-.33-.77-.49-1.16C437.83,94.06,433.3,93.92,428.78,94.11Z"/><path class="cls-7" d="M386.38,139.62c-1.92.08-3.16-.28-4-2.28a52,52,0,0,0-3.64-6.26c-1.73,2.7-3.7,4.9-4.6,7.47-.68,2-1.61,2.19-3.26,2.57-2.92.66-6.06.73-9,2.7,1.57,1.46,2.92,2.8,4.36,4.05a7.7,7.7,0,0,1,2.68,7.21c-.35,3.63-.08,7.33-.08,11.3.78-.41,1.39-.68,1.95-1,2.52-1.61,5.12-3.12,7.52-4.9,1.75-1.3,3.1-1.08,4.87,0,2.27,1.37,4.79,2.32,7.5,3.6-.34-3.7-.69-7-.93-10.26a5.83,5.83,0,0,1,.35-2.89c1-2,2.25-3.79,3.41-5.67,1-1.6,2-3.18,3-4.77l-.35-.84C392.93,139.58,389.65,139.49,386.38,139.62Z"/><path class="cls-8" d="M1278.83,249.73a2.11,2.11,0,0,1-2.42-1.37,32.92,32.92,0,0,0-2.2-3.73c-1,1.61-2.25,2.92-2.79,4.46-.41,1.17-1,1.3-2,1.52-1.77.4-3.67.44-5.44,1.62,1,.87,1.77,1.67,2.64,2.41a4.55,4.55,0,0,1,1.63,4.3c-.22,2.17,0,4.38,0,6.74.47-.24.84-.4,1.18-.61,1.53-1,3.1-1.87,4.56-2.93a2.33,2.33,0,0,1,3,0c1.38.81,2.9,1.38,4.55,2.14-.21-2.2-.43-4.16-.57-6.11a3.4,3.4,0,0,1,.21-1.73c.61-1.17,1.37-2.26,2.07-3.38.6-1,1.22-1.9,1.83-2.84l-.21-.51C1282.8,249.7,1280.81,249.65,1278.83,249.73Z"/><path class="cls-7" d="M493.8,640.64c-4.75.19-7.84-.72-9.9-5.67-2.22-5.32-5.78-10.06-9-15.56-4.29,6.72-9.18,12.17-11.41,18.57-1.7,4.87-4,5.43-8.11,6.36-7.24,1.65-15,1.83-22.29,6.73,3.88,3.62,7.25,6.94,10.82,10,5.52,4.79,7.41,10.42,6.67,17.91-.88,9-.21,18.22-.21,28.07,1.94-1,3.45-1.69,4.83-2.57,6.27-4,12.72-7.74,18.67-12.17,4.35-3.23,7.71-2.68,12.1-.05,5.65,3.38,11.9,5.76,18.64,8.93-.86-9.19-1.73-17.32-2.32-25.47-.17-2.39-.16-5.16.87-7.18,2.48-4.88,5.58-9.43,8.47-14.08,2.47-4,5-7.9,7.49-11.85l-.87-2.1C510.07,640.54,501.92,640.31,493.8,640.64Z"/><path class="cls-7" d="M436.19,726.05c-2.65.11-4.36-.39-5.51-3.15-1.24-3-3.22-5.6-5-8.65-2.38,3.73-5.1,6.77-6.34,10.32-.95,2.72-2.23,3-4.52,3.54-4,.92-8.37,1-12.4,3.75,2.16,2,4,3.86,6,5.58,3.07,2.67,4.12,5.8,3.71,10-.49,5-.11,10.14-.11,15.62,1.07-.57,1.92-.94,2.68-1.43,3.49-2.22,7.08-4.31,10.39-6.76,2.42-1.8,4.29-1.5,6.73,0,3.15,1.88,6.62,3.21,10.37,5-.47-5.11-1-9.63-1.29-14.17a8,8,0,0,1,.49-4c1.38-2.71,3.1-5.24,4.71-7.83,1.37-2.21,2.78-4.39,4.17-6.59l-.48-1.17C445.24,726,440.7,725.87,436.19,726.05Z"/><path class="cls-9" d="M503.15,430.23c6.3.75,10,8.32,11.51,11,55.87,96.11-60,180.53-135.53,215.7-6.23,2.9-12.56,5.86-18.91,8.55-4.81,2-8.86,1.94-12,.41-7.47-3.66-9.14-12.49-6.46-19.89,3.31-9.16,12.71-14.56,21.86-17.83,32.73-11.67,63.71-29,89.95-52.14,7.37-6.51,26.18-26.31,39.09-57.22,10.32-24.7,15.61-50.4-.06-74.43-.38-.58-2.53-2.36-2.51-4.89C490.12,434.8,497.3,429.55,503.15,430.23Z"/><path class="cls-9" d="M336.63,308.93a6.29,6.29,0,0,0-3.49-2.69,65.38,65.38,0,0,0-18.37-3.51c-94.68-4.24-138.35,116.17-142.3,193.13l-1.64,31.82c-.3,5.8-.46,12.88,5,16.38s14,2,18.23-3.07c7-8.37,6.23-20.32,6.2-30.53-.18-43.28,8.1-88.91,31.68-125.83,19.36-30.33,56.22-74.35,97.39-59.73,1.79.64,3.87,1.49,5.53.54,1.49-.84,1.95-2.73,2.19-4.42C337.65,316.78,338.51,312.05,336.63,308.93Z"/><path class="cls-10" d="M380.47,349.82a13.44,13.44,0,0,1-15.81,4.5c-5.4-2.3-10.2-6.44-15.43-9.24-6.58-3.52-15-7.22-17.81-14.7-1.65-4.43-.18-8.76,3.47-13.71,1.49-2,2.12-5.4,4.4-6.68,11.13-6.16,23.71,9.31,31.45,14.93,5.92,4.3,13.11,9.78,12.41,18A13.26,13.26,0,0,1,380.47,349.82Z"/><path class="cls-10" d="M462.9,403.51a13.56,13.56,0,0,0-.5,16.54c3.59,4.76,8.8,8.47,12.81,13,5.05,5.64,10.72,13,18.72,14,4.71.58,8.56-1.88,12.48-6.61,1.6-1.94,4.74-3.35,5.41-5.89,3.27-12.34-14.93-21-22.31-27.29-5.63-4.79-12.76-10.56-20.58-8A13,13,0,0,0,462.9,403.51Z"/><path class="cls-11" d="M348.63,666.06a13.92,13.92,0,0,1-1,1.65c-10.89,14.71-38.9,15-55.2,14.66-21.38-.44-42.67-5.93-61-17.08-2.3-1.4-5-2.92-7.5-1.92-1.57.63-2.6,2.13-3.53,3.56-11.73,18-23.45,36-36,53.41-12.33,17.06-24.68,34.1-37.26,51C137.55,784,127.93,796.66,118,809c-9.46,11.78-18.37,24.73-22.93,39.28q-.83,2.64-1.46,5.32a72,72,0,0,0,5.66,48.44H68.56q-.9-2.66-1.62-5.38c-6.69-25.18-1.09-53.77,12.14-75.88,1.09-1.81,2.22-3.59,3.44-5.33,8.11-11.79,17-23.14,25.47-34.74l65.57-90.27c5.77-7.94,11.17-16.15,16.56-24.35,2.7-4.11,5.37-8.22,8.08-12.31,6.88-10.36-1.27-12.43-8.4-20.12a103.85,103.85,0,0,1-26.16-84.2c.53-3.79,1.37-7.73,3.83-10.65A12,12,0,0,1,171,536h0a17.48,17.48,0,0,1,5-1.68,36.58,36.58,0,0,1,10.5,0c3.07.36,6.25.89,8.8,2.65a9.37,9.37,0,0,1,1,.79h0c5.75,5.08,4.44,14.77,3.6,22.72a82.75,82.75,0,0,0,14.1,55.36c12.84,18.54,33.43,30.54,55.17,35.46a94.08,94.08,0,0,0,38.07.87c10.36-2,24.06-10.86,34.89-7.2h0a14,14,0,0,1,2.82,1.28C351.49,650,352.33,659.48,348.63,666.06Z"/><path class="cls-7" d="M258.68,836.64a57.7,57.7,0,0,0-57.61,57.75,58.19,58.19,0,0,0,.5,7.69h15.62l0-.14c-.06-.32-.11-.65-.17-1l0-.16-.12-.87c-.05-.4-.1-.8-.14-1.21,0-.25-.05-.51-.06-.76s0-.37,0-.56,0-.57-.05-.86,0-.55,0-.83,0-.71,0-1.06a41,41,0,1,1,82.07,0c0,.35,0,.71,0,1.06s0,.56,0,.83,0,.57,0,.86,0,.37-.05.56,0,.51-.06.76c0,.41-.09.81-.14,1.21s-.08.59-.12.87l0,.16c-.06.32-.11.65-.17,1l0,.14h17.86a57.67,57.67,0,0,0-57.1-65.44Z"/><path class="cls-7" d="M258,853.76a41.11,41.11,0,0,0-41,41.14c0,.35,0,.71,0,1.06l0,.83c0,.29,0,.57.05.86s0,.38,0,.56,0,.51.07.76c0,.41.09.81.14,1.21s.07.59.12.87l0,.16c.05.32.1.65.16,1l0,.14h80.72l0-.14c.06-.32.11-.65.16-1l0-.16c0-.28.09-.58.12-.87s.1-.8.15-1.21l.06-.76c0-.18,0-.37,0-.56s0-.57,0-.86l0-.83c0-.35,0-.71,0-1.06a41.05,41.05,0,0,0-41-41.14Z"/><path class="cls-10" d="M257.55,853.52a41.14,41.14,0,0,0-41,41.14c0,.35,0,.71,0,1.06s0,.56,0,.83,0,.57.05.86,0,.37,0,.56l.06.76c0,.41.09.81.14,1.21l.12.87,0,.16c.06.32.11.65.17,1l0,.14h80.73l0-.14c.06-.32.11-.65.17-1l0-.16c0-.28.08-.58.12-.87s.1-.8.14-1.21c0-.25.05-.51.06-.76s0-.37.05-.56,0-.57,0-.86,0-.55,0-.83,0-.71,0-1.06a41.05,41.05,0,0,0-41-41.14Z"/><path class="cls-7" d="M285.56,892.75a28.2,28.2,0,0,1-1.56,9.33H230.49a28.33,28.33,0,1,1,55.07-9.33Z"/><path class="cls-11" d="M557.47,536.08a4.66,4.66,0,0,1-3.36.93c-1.07-.1-2.16-.15-3.23-.15-15.85,0-28.74,10.26-31.34,24.94-3,17.11,9.11,33.73,27.07,37a36.11,36.11,0,0,0,6.64.59c19.54,0,32.4-12.41,35-24.67,2-9.63-1.19-20.35-8.45-28A33.29,33.29,0,0,0,557.47,536.08Z"/><path class="cls-5" d="M545.7,580.22a2.71,2.71,0,0,1-2,.3c-.63-.13-1.26-.24-1.89-.32-9.33-1.15-17.65,3.94-20.25,12.39-3,9.85,2.92,20.5,13.24,23.76a22.12,22.12,0,0,0,3.86.83c11.5,1.43,20-4.94,22.39-12a18.85,18.85,0,0,0-3-17.08A19.75,19.75,0,0,0,545.7,580.22Z"/><path class="cls-5" d="M339.92,784.74a1.35,1.35,0,0,1-1,.16c-.3-.07-.62-.12-.92-.16a8.93,8.93,0,0,0-9.92,6.06,9.49,9.49,0,0,0,6.49,11.64,10.09,10.09,0,0,0,1.89.4c5.63.7,9.77-2.41,11-5.85a9.31,9.31,0,0,0-1.44-8.37A9.73,9.73,0,0,0,339.92,784.74Z"/><path class="cls-6" d="M357,758.65a1.3,1.3,0,0,1-1,.15,9.28,9.28,0,0,0-.92-.15,8.93,8.93,0,0,0-9.92,6.06,9.49,9.49,0,0,0,6.49,11.64,10.09,10.09,0,0,0,1.89.4c5.63.7,9.77-2.41,11-5.86a9.22,9.22,0,0,0-1.44-8.36A9.73,9.73,0,0,0,357,758.65Z"/><path class="cls-5" d="M382.21,790.36a1.88,1.88,0,0,1-1.39.21c-.42-.09-.86-.17-1.28-.22-6.35-.78-12,2.68-13.78,8.43-2.06,6.7,2,14,9,16.16a14.87,14.87,0,0,0,2.63.57c7.82,1,13.58-3.36,15.23-8.14a13,13,0,0,0,.41-6.06,12.8,12.8,0,0,0-2.42-5.56A13.46,13.46,0,0,0,382.21,790.36Z"/><path class="cls-12" d="M990.08,510.32H756.92c-7.14,0-12.92,4.91-12.92,11v37c0,6.06,5.78,11,12.92,11H990.08c7.14,0,12.92-4.92,12.92-11v-37C1003,515.23,997.22,510.32,990.08,510.32Z"/><path class="cls-13" d="M824.16,543.49H818L816.82,547h-3.74l6.35-17.07h3.26L829.08,547h-3.74Zm-5.22-2.85h4.27l-2.15-6.38Zm22.36.14a7.6,7.6,0,0,1-1.34,4.7,4.22,4.22,0,0,1-3.58,1.76,4,4,0,0,1-3.11-1.33v6h-3.38V534.33H833l.11,1.24a4,4,0,0,1,3.21-1.48,4.29,4.29,0,0,1,3.65,1.74,7.78,7.78,0,0,1,1.3,4.78Zm-3.39-.24a5,5,0,0,0-.63-2.73,2,2,0,0,0-1.82-1,2.21,2.21,0,0,0-2.19,1.22v5.19a2.27,2.27,0,0,0,2.22,1.25Q837.91,544.51,837.91,540.54Zm16.91.24a7.6,7.6,0,0,1-1.33,4.7,4.25,4.25,0,0,1-3.59,1.76,4,4,0,0,1-3.11-1.33v6h-3.38V534.33h3.14l.12,1.24a4,4,0,0,1,3.21-1.48,4.27,4.27,0,0,1,3.64,1.74,7.78,7.78,0,0,1,1.3,4.78Zm-3.38-.24a5,5,0,0,0-.64-2.73,2,2,0,0,0-1.81-1,2.21,2.21,0,0,0-2.2,1.22v5.19a2.28,2.28,0,0,0,2.22,1.25Q851.44,544.51,851.44,540.54Zm9.07,6.47h-3.4V529h3.4Zm7.53-4.8,2.35-7.88H874L868.92,549l-.28.67a3.87,3.87,0,0,1-3.75,2.49,5.67,5.67,0,0,1-1.5-.22v-2.57h.52a2.79,2.79,0,0,0,1.42-.29,1.83,1.83,0,0,0,.75-1l.4-1L862,534.33h3.65Zm27.39,4.8h-3.52l-6.84-11.23V547h-3.52V529.94h3.52l6.85,11.25V529.94h3.51Zm2.32-6.46a7.54,7.54,0,0,1,.72-3.36,5.4,5.4,0,0,1,2.09-2.29,6.11,6.11,0,0,1,3.18-.81,5.78,5.78,0,0,1,4.18,1.57,6.31,6.31,0,0,1,1.82,4.27l0,.86a6.63,6.63,0,0,1-1.63,4.69,6.32,6.32,0,0,1-8.75,0,6.73,6.73,0,0,1-1.63-4.78Zm3.39.24a4.7,4.7,0,0,0,.68,2.77,2.44,2.44,0,0,0,3.86,0,5.2,5.2,0,0,0,.69-3,4.68,4.68,0,0,0-.69-2.74,2.25,2.25,0,0,0-1.94-1,2.2,2.2,0,0,0-1.92,1A5.15,5.15,0,0,0,901.14,540.79Zm21.73,1.61,1.67-8.07h3.27L924.57,547h-2.83l-2.41-8-2.4,8h-2.82l-3.24-12.68h3.27l1.65,8.06,2.33-8.06h2.45Z"/><path class="cls-14" d="M1441,903.44H666.9c16.47-111.82,218.6-186.08,373.6-152.08,142.8,31.32,326.83-127.15,401-210.3"/><path class="cls-4" d="M1300.61,250.7a4.22,4.22,0,0,1,3.38-1.61c2.75,0,4.15,1.59,4.19,4.79V262h-3.39v-8a2.33,2.33,0,0,0-.47-1.6,2,2,0,0,0-1.56-.53,2.29,2.29,0,0,0-2.15,1.15v9h-3.39V244h3.39Zm9.59,4.84a7.58,7.58,0,0,1,.73-3.36,5.25,5.25,0,0,1,2.09-2.28,6,6,0,0,1,3.17-.81,5.76,5.76,0,0,1,4.19,1.57,6.27,6.27,0,0,1,1.81,4.26l0,.87a6.69,6.69,0,0,1-1.62,4.69,6.36,6.36,0,0,1-8.76,0,6.81,6.81,0,0,1-1.63-4.78Zm3.39.25a4.77,4.77,0,0,0,.68,2.76,2.22,2.22,0,0,0,1.94.95,2.26,2.26,0,0,0,1.93-.93,5.23,5.23,0,0,0,.69-3,4.68,4.68,0,0,0-.69-2.74,2.25,2.25,0,0,0-2-1,2.19,2.19,0,0,0-1.92,1A5.26,5.26,0,0,0,1313.59,255.79Zm13.89-6.47.1,1.42a4.47,4.47,0,0,1,3.65-1.65,3.38,3.38,0,0,1,3.36,1.93,4.35,4.35,0,0,1,3.81-1.93,3.79,3.79,0,0,1,3.07,1.2,5.51,5.51,0,0,1,1,3.61V262h-3.4v-8.09a2.42,2.42,0,0,0-.42-1.57,1.88,1.88,0,0,0-1.49-.5,2.11,2.11,0,0,0-2.11,1.45V262h-3.39v-8.07a2.39,2.39,0,0,0-.43-1.6,1.88,1.88,0,0,0-1.48-.49,2.19,2.19,0,0,0-2.08,1.2v9h-3.39V249.32Zm23.45,12.91a6.25,6.25,0,0,1-4.55-1.71,6.07,6.07,0,0,1-1.75-4.56v-.32a7.63,7.63,0,0,1,.74-3.41,5.36,5.36,0,0,1,2.09-2.32,5.8,5.8,0,0,1,3.09-.82,5.21,5.21,0,0,1,4.09,1.64,6.63,6.63,0,0,1,1.5,4.65v1.38h-8.07a3.13,3.13,0,0,0,1,2,3,3,0,0,0,2.1.75,3.68,3.68,0,0,0,3.06-1.41l1.66,1.86a5.14,5.14,0,0,1-2.06,1.69A6.81,6.81,0,0,1,1350.93,262.23Zm-.39-10.4a2.11,2.11,0,0,0-1.64.68,3.5,3.5,0,0,0-.8,1.94h4.71v-.27a2.44,2.44,0,0,0-.61-1.73A2.18,2.18,0,0,0,1350.54,251.83Z"/><path class="cls-4" d="M1299.05,334.5v2.05h1.58v1.11h-1.58v5.25a1.13,1.13,0,0,0,.22.76.88.88,0,0,0,.71.25,3.61,3.61,0,0,0,.69-.09V345a4.38,4.38,0,0,1-1.11.16,1.81,1.81,0,0,1-1.46-.59,2.49,2.49,0,0,1-.49-1.66v-5.25h-1.54v-1.11h1.54V334.5Zm7.36,3.34a5,5,0,0,0-.71,0,1.91,1.91,0,0,0-1.93,1.21v6h-1.44v-8.45h1.4l0,1a2.24,2.24,0,0,1,2-1.13,1.5,1.5,0,0,1,.64.11Zm6.25,7.16a3,3,0,0,1-.21-.89,3.21,3.21,0,0,1-2.4,1.05,3,3,0,0,1-2.06-.71,2.29,2.29,0,0,1-.79-1.79,2.38,2.38,0,0,1,1-2.05,4.71,4.71,0,0,1,2.82-.73h1.41v-.67a1.61,1.61,0,0,0-.45-1.2,1.84,1.84,0,0,0-1.34-.46,2.06,2.06,0,0,0-1.3.4,1.13,1.13,0,0,0-.52.94h-1.45a2,2,0,0,1,.44-1.22,3.15,3.15,0,0,1,1.22-.94,4.3,4.3,0,0,1,1.7-.34,3.35,3.35,0,0,1,2.29.74,2.64,2.64,0,0,1,.86,2V343a4.77,4.77,0,0,0,.29,1.86V345Zm-2.4-1.1a2.61,2.61,0,0,0,1.29-.35,2.16,2.16,0,0,0,.88-.92V340.9h-1.13c-1.77,0-2.66.52-2.66,1.55a1.33,1.33,0,0,0,.45,1.07A1.79,1.79,0,0,0,1310.26,343.9Zm9.27.08a2.07,2.07,0,0,0,1.35-.47,1.63,1.63,0,0,0,.64-1.17h1.37a2.64,2.64,0,0,1-.5,1.38,3.32,3.32,0,0,1-1.23,1,3.56,3.56,0,0,1-1.63.39,3.52,3.52,0,0,1-2.75-1.15,4.61,4.61,0,0,1-1-3.16v-.24a5.15,5.15,0,0,1,.45-2.2,3.44,3.44,0,0,1,1.3-1.49,3.71,3.71,0,0,1,2-.53,3.35,3.35,0,0,1,2.36.85,3,3,0,0,1,1,2.21h-1.37a2,2,0,0,0-.62-1.34,1.93,1.93,0,0,0-1.38-.53,2,2,0,0,0-1.71.8,3.69,3.69,0,0,0-.6,2.28v.28a3.67,3.67,0,0,0,.6,2.25A2.06,2.06,0,0,0,1319.53,344Zm7.35-2.89-.91.94v3h-1.45V333H1326v7.26l.77-.93,2.64-2.78h1.75l-3.29,3.53,3.68,4.92h-1.7Zm10.67,1.67a1.06,1.06,0,0,0-.45-.91,4.16,4.16,0,0,0-1.54-.56,7.41,7.41,0,0,1-1.74-.56,2.53,2.53,0,0,1-1-.78,1.88,1.88,0,0,1-.31-1.08,2.18,2.18,0,0,1,.88-1.76,3.45,3.45,0,0,1,2.25-.72,3.56,3.56,0,0,1,2.33.74,2.38,2.38,0,0,1,.89,1.9h-1.45a1.29,1.29,0,0,0-.51-1,1.84,1.84,0,0,0-1.26-.43,2,2,0,0,0-1.24.34,1.1,1.1,0,0,0-.44.9.89.89,0,0,0,.41.79,5.07,5.07,0,0,0,1.49.51,7.38,7.38,0,0,1,1.76.58,2.41,2.41,0,0,1,1,.81,1.93,1.93,0,0,1,.33,1.15,2.19,2.19,0,0,1-.9,1.82,3.86,3.86,0,0,1-2.36.68,4.24,4.24,0,0,1-1.79-.36,3.06,3.06,0,0,1-1.23-1,2.49,2.49,0,0,1-.44-1.4h1.45a1.48,1.48,0,0,0,.58,1.15,2.22,2.22,0,0,0,1.43.43,2.35,2.35,0,0,0,1.32-.33A1,1,0,0,0,1337.55,342.76Z"/><path class="cls-4" d="M1302.31,306a3.1,3.1,0,0,1-.2-.89,3.21,3.21,0,0,1-2.41,1.05,3,3,0,0,1-2-.71,2.3,2.3,0,0,1-.8-1.79,2.38,2.38,0,0,1,1-2.05,4.74,4.74,0,0,1,2.83-.73h1.41v-.67a1.61,1.61,0,0,0-.46-1.2,1.8,1.8,0,0,0-1.33-.46,2.06,2.06,0,0,0-1.3.4,1.13,1.13,0,0,0-.52.94H1297a2,2,0,0,1,.45-1.22,3.15,3.15,0,0,1,1.22-.94,4.25,4.25,0,0,1,1.69-.34,3.32,3.32,0,0,1,2.29.74,2.61,2.61,0,0,1,.86,2V304a4.75,4.75,0,0,0,.3,1.86V306Zm-2.4-1.1a2.55,2.55,0,0,0,1.29-.35,2.18,2.18,0,0,0,.89-.92V301.9H1301c-1.77,0-2.65.52-2.65,1.55a1.33,1.33,0,0,0,.45,1.07A1.76,1.76,0,0,0,1299.91,304.9Zm13-3a5,5,0,0,1-.89,3.11,2.83,2.83,0,0,1-2.39,1.18,2.92,2.92,0,0,1-2.47-1.14l-.08,1h-1.32V294h1.44v4.48a2.93,2.93,0,0,1,2.42-1.09,2.86,2.86,0,0,1,2.41,1.16,5.16,5.16,0,0,1,.88,3.19Zm-1.44-.17a3.92,3.92,0,0,0-.57-2.28,1.9,1.9,0,0,0-1.64-.8,2.12,2.12,0,0,0-2.06,1.33v3.65a2.18,2.18,0,0,0,2.07,1.33,1.89,1.89,0,0,0,1.62-.8A4.15,4.15,0,0,0,1311.51,301.7Zm2.89,0a5.08,5.08,0,0,1,.48-2.24,3.69,3.69,0,0,1,1.36-1.53,3.74,3.74,0,0,1,2-.54,3.52,3.52,0,0,1,2.79,1.2,4.53,4.53,0,0,1,1.07,3.18v.1a5.16,5.16,0,0,1-.47,2.22,3.69,3.69,0,0,1-1.35,1.52,3.8,3.8,0,0,1-2,.55,3.55,3.55,0,0,1-2.79-1.2,4.58,4.58,0,0,1-1.06-3.16Zm1.45.17a3.67,3.67,0,0,0,.65,2.26,2.12,2.12,0,0,0,1.75.85,2.09,2.09,0,0,0,1.75-.86,4,4,0,0,0,.65-2.42,3.52,3.52,0,0,0-.67-2.25,2.18,2.18,0,0,0-3.47,0A3.92,3.92,0,0,0,1315.85,301.87Zm13.27,3.29a3,3,0,0,1-2.47,1,2.64,2.64,0,0,1-2.06-.78,3.42,3.42,0,0,1-.71-2.33v-5.5h1.44V303q0,1.92,1.56,1.92a2.17,2.17,0,0,0,2.21-1.23v-6.15h1.44V306h-1.37Zm5.58-9.66v2.05h1.57v1.11h-1.57v5.25a1.19,1.19,0,0,0,.21.76.88.88,0,0,0,.71.25,3.61,3.61,0,0,0,.69-.09V306a4.38,4.38,0,0,1-1.11.16,1.81,1.81,0,0,1-1.46-.59,2.49,2.49,0,0,1-.49-1.66v-5.25h-1.54v-1.11h1.54V295.5Z"/><path class="cls-4" d="M1302,381.76a1.06,1.06,0,0,0-.45-.91,4.16,4.16,0,0,0-1.54-.56,7.41,7.41,0,0,1-1.74-.56,2.45,2.45,0,0,1-1-.78,1.88,1.88,0,0,1-.31-1.08,2.18,2.18,0,0,1,.88-1.76,3.41,3.41,0,0,1,2.25-.72,3.53,3.53,0,0,1,2.32.74,2.36,2.36,0,0,1,.9,1.9h-1.45a1.29,1.29,0,0,0-.51-1,1.84,1.84,0,0,0-1.26-.43,2,2,0,0,0-1.24.34,1.07,1.07,0,0,0-.44.9.87.87,0,0,0,.41.79,5,5,0,0,0,1.49.51,7.38,7.38,0,0,1,1.76.58,2.41,2.41,0,0,1,1,.81,1.93,1.93,0,0,1,.33,1.15,2.17,2.17,0,0,1-.91,1.82,3.81,3.81,0,0,1-2.35.68,4.24,4.24,0,0,1-1.79-.36,3.06,3.06,0,0,1-1.23-1,2.49,2.49,0,0,1-.44-1.4h1.45a1.48,1.48,0,0,0,.58,1.15,2.22,2.22,0,0,0,1.43.43,2.35,2.35,0,0,0,1.32-.33A1,1,0,0,0,1302,381.76Zm6.71,1.22a2.12,2.12,0,0,0,1.36-.47,1.71,1.71,0,0,0,.64-1.17h1.36a2.56,2.56,0,0,1-.5,1.38,3.17,3.17,0,0,1-1.23,1A3.77,3.77,0,0,1,1306,383a4.66,4.66,0,0,1-1-3.16v-.24a5.15,5.15,0,0,1,.45-2.2,3.5,3.5,0,0,1,1.3-1.49,3.77,3.77,0,0,1,2-.53,3.39,3.39,0,0,1,2.36.85,3,3,0,0,1,1,2.21h-1.36a2,2,0,0,0-.63-1.34,1.93,1.93,0,0,0-1.37-.53,2,2,0,0,0-1.71.8,3.62,3.62,0,0,0-.61,2.28v.28a3.61,3.61,0,0,0,.61,2.25A2,2,0,0,0,1308.73,383Zm6.43-6.41a3.07,3.07,0,0,1,2.5-1.18c1.79,0,2.69,1,2.71,3V384h-1.45v-5.59a1.93,1.93,0,0,0-.42-1.36,1.67,1.67,0,0,0-1.27-.43,2.11,2.11,0,0,0-1.24.37,2.6,2.6,0,0,0-.83,1v6h-1.44V372h1.44Zm10.88,7.59a3.71,3.71,0,0,1-2.8-1.13,4.18,4.18,0,0,1-1.08-3v-.27a5,5,0,0,1,.48-2.24A3.76,3.76,0,0,1,1324,376a3.44,3.44,0,0,1,1.88-.56,3.14,3.14,0,0,1,2.56,1.09,4.69,4.69,0,0,1,.92,3.11v.6h-5.73a3,3,0,0,0,.73,2,2.3,2.3,0,0,0,1.78.77,2.47,2.47,0,0,0,1.29-.32,3,3,0,0,0,.93-.82l.89.68A3.55,3.55,0,0,1,1326,384.16Zm-.18-7.58a1.93,1.93,0,0,0-1.47.64,3,3,0,0,0-.73,1.78h4.23v-.11a2.75,2.75,0,0,0-.59-1.7A1.82,1.82,0,0,0,1325.86,376.58Zm4.8,3.12a4.89,4.89,0,0,1,.93-3.12,3.12,3.12,0,0,1,4.76-.17V372h1.45v12h-1.33l-.07-.91a3,3,0,0,1-2.42,1.07,2.88,2.88,0,0,1-2.39-1.21,5,5,0,0,1-.93-3.14Zm1.45.17a3.78,3.78,0,0,0,.59,2.25,1.94,1.94,0,0,0,1.64.81,2.11,2.11,0,0,0,2-1.23v-3.89a2.12,2.12,0,0,0-2-1.19,1.93,1.93,0,0,0-1.66.82A4.14,4.14,0,0,0,1332.11,379.87Zm13.16,3.29a3.06,3.06,0,0,1-2.48,1,2.64,2.64,0,0,1-2.06-.78,3.42,3.42,0,0,1-.71-2.33v-5.5h1.44V381q0,1.92,1.56,1.92a2.17,2.17,0,0,0,2.21-1.23v-6.15h1.44V384h-1.37Zm5.18.84H1349V372h1.45Zm5.82.16a3.7,3.7,0,0,1-2.79-1.13,4.18,4.18,0,0,1-1.08-3v-.27a5,5,0,0,1,.48-2.24,3.76,3.76,0,0,1,1.34-1.55,3.41,3.41,0,0,1,1.87-.56,3.17,3.17,0,0,1,2.57,1.09,4.69,4.69,0,0,1,.91,3.11v.6h-5.73a3,3,0,0,0,.73,2,2.32,2.32,0,0,0,1.78.77,2.53,2.53,0,0,0,1.3-.32,3.27,3.27,0,0,0,.93-.82l.88.68A3.55,3.55,0,0,1,1356.27,384.16Zm-.18-7.58a1.93,1.93,0,0,0-1.47.64,3.06,3.06,0,0,0-.73,1.78h4.23v-.11a2.69,2.69,0,0,0-.59-1.7A1.79,1.79,0,0,0,1356.09,376.58Z"/><path class="cls-4" d="M1303.59,418h-4.77v5h-1.5V411.63h7v1.23h-5.55v3.89h4.77Zm7.53,2h-4.77l-1.07,3h-1.55l4.35-11.37h1.31l4.35,11.37h-1.54Zm-4.32-1.23h3.87l-1.94-5.32Zm17.07-1.12a7,7,0,0,1-.53,2.84,4.35,4.35,0,0,1-1.46,1.86l2,1.6-1,.94-2.4-1.9a5,5,0,0,1-1.18.14,4.24,4.24,0,0,1-4-2.54,6.85,6.85,0,0,1-.59-2.84V417a7,7,0,0,1,.57-2.9,4.22,4.22,0,0,1,4-2.59,4.43,4.43,0,0,1,2.42.66,4.29,4.29,0,0,1,1.6,1.92,6.88,6.88,0,0,1,.57,2.9Zm-1.5-.73a5.13,5.13,0,0,0-.81-3.1,2.89,2.89,0,0,0-4.51,0,5,5,0,0,0-.84,3v.84a5.19,5.19,0,0,0,.81,3.08,2.91,2.91,0,0,0,4.53.07,5.14,5.14,0,0,0,.82-3Zm8.51,3.81a1.06,1.06,0,0,0-.45-.91,4.23,4.23,0,0,0-1.54-.56,7.41,7.41,0,0,1-1.74-.56,2.45,2.45,0,0,1-1-.78,1.88,1.88,0,0,1-.31-1.08,2.18,2.18,0,0,1,.88-1.76,3.41,3.41,0,0,1,2.25-.72,3.53,3.53,0,0,1,2.32.74,2.36,2.36,0,0,1,.9,1.9h-1.45a1.29,1.29,0,0,0-.51-1,1.84,1.84,0,0,0-1.26-.43,2,2,0,0,0-1.24.34,1.07,1.07,0,0,0-.44.9.87.87,0,0,0,.41.79,5,5,0,0,0,1.49.51,7.38,7.38,0,0,1,1.76.58,2.41,2.41,0,0,1,1,.81,1.93,1.93,0,0,1,.33,1.15,2.17,2.17,0,0,1-.91,1.82,3.81,3.81,0,0,1-2.35.68,4.24,4.24,0,0,1-1.79-.36,3,3,0,0,1-1.23-1,2.49,2.49,0,0,1-.44-1.4h1.45a1.5,1.5,0,0,0,.57,1.15,2.26,2.26,0,0,0,1.44.43,2.35,2.35,0,0,0,1.32-.33A1,1,0,0,0,1330.88,420.76Z"/><line class="cls-15" x1="1297" y1="273.5" x2="1356" y2="273.5"/><path class="cls-16" d="M1307.91,467a59.71,59.71,0,0,1-4.48-4.65c-1.82-2.1-2.3-2.95-2.64-3.89a6.8,6.8,0,0,1-.21-5c.55-1.25,1.81-2.66,3.39-2.59a3.63,3.63,0,0,1,2.21,1.07,14.2,14.2,0,0,1,1.9,3.23,7,7,0,0,1,1.46-2.56,3.4,3.4,0,0,1,1.94-1.27,3.08,3.08,0,0,1,1.12.07,3.94,3.94,0,0,1,1.94.74,3.81,3.81,0,0,1,1.08,2.25,7.61,7.61,0,0,1-.91,4.92,9.84,9.84,0,0,1-1.29,2,25.75,25.75,0,0,1-3.24,3A18.2,18.2,0,0,0,1307.91,467Z"/><path class="cls-17" d="M1297.63,459.28l5.69.25a.08.08,0,0,0,.07,0l.45-1.22s0,0,0,0l.71,2.48s0,0,0,0l1-6.6s0,0,0,0l1.11,8.94s0,0,0,0l1-5.92s0,0,0,0l.85,3.84s0,0,0,0l.66-3.74s0,0,0,0l.55,1.12s0,0,0,0l.8-3.23s0,0,0,0l.84,4.86a.09.09,0,0,0,.07.06l5.13.32h.11l.46,0"/></svg>