<svg id="Layer_1" data-name="Layer 1" xmlns="http://www.w3.org/2000/svg" viewBox="0 0 550 550"><defs><style>.cls-1{fill:none;}</style></defs><title>linktree</title><rect class="cls-1" width="550" height="550"/><path d="M545.49,344.53,387.1,56.6a24.08,24.08,0,0,0-42.19,0L275,183.68l88.48,160.85A19.62,19.62,0,0,1,366,355.39c-.72,10.73-10.42,20.16-23.56,20.17H313.74v109.8a20.52,20.52,0,0,0,20.52,20.51h63.49a20.51,20.51,0,0,0,20.51-20.51h0V375.56H524.39c17.53,0,28.94-16.77,21.1-31Z" transform="translate(-1 1)"/><path d="M205.09,56.6a24.08,24.08,0,0,0-42.19,0L4.51,344.53c-7.84,14.26,3.57,31,21.1,31H131.74v109.8a20.51,20.51,0,0,0,20.51,20.51h63.49a20.51,20.51,0,0,0,20.51-20.51h0V375.56H207.6c-13.14,0-22.84-9.44-23.56-20.17a19.62,19.62,0,0,1,2.48-10.86L275,183.68Z" transform="translate(-1 1)"/></svg>